<svg width="202" height="23" viewBox="0 0 202 23" fill="none" xmlns="http://www.w3.org/2000/svg">
<path d="M10.7891 10.6055H4.03906V15.1758H11.9609V18H0.523438V0.9375H11.9375V3.78516H4.03906V7.85156H10.7891V10.6055ZM16.918 5.32031L17.0234 6.78516C17.9297 5.65234 19.1445 5.08594 20.668 5.08594C22.0117 5.08594 23.0117 5.48047 23.668 6.26953C24.3242 7.05859 24.6602 8.23828 24.6758 9.80859V18H21.2891V9.89062C21.2891 9.17188 21.1328 8.65234 20.8203 8.33203C20.5078 8.00391 19.9883 7.83984 19.2617 7.83984C18.3086 7.83984 17.5938 8.24609 17.1172 9.05859V18H13.7305V5.32031H16.918ZM26.7617 11.5664C26.7617 9.62109 27.2227 8.05469 28.1445 6.86719C29.0742 5.67969 30.3242 5.08594 31.8945 5.08594C33.2852 5.08594 34.3672 5.5625 35.1406 6.51562L35.2812 5.32031H38.3516V17.5781C38.3516 18.6875 38.0977 19.6523 37.5898 20.4727C37.0898 21.293 36.3828 21.918 35.4688 22.3477C34.5547 22.7773 33.4844 22.9922 32.2578 22.9922C31.3281 22.9922 30.4219 22.8047 29.5391 22.4297C28.6562 22.0625 27.9883 21.5859 27.5352 21L29.0352 18.9375C29.8789 19.8828 30.9023 20.3555 32.1055 20.3555C33.0039 20.3555 33.7031 20.1133 34.2031 19.6289C34.7031 19.1523 34.9531 18.4727 34.9531 17.5898V16.9102C34.1719 17.793 33.1445 18.2344 31.8711 18.2344C30.3477 18.2344 29.1133 17.6406 28.168 16.4531C27.2305 15.2578 26.7617 13.6758 26.7617 11.707V11.5664ZM30.1484 11.8125C30.1484 12.9609 30.3789 13.8633 30.8398 14.5195C31.3008 15.168 31.9336 15.4922 32.7383 15.4922C33.7695 15.4922 34.5078 15.1055 34.9531 14.332V9C34.5 8.22656 33.7695 7.83984 32.7617 7.83984C31.9492 7.83984 31.3086 8.17188 30.8398 8.83594C30.3789 9.5 30.1484 10.4922 30.1484 11.8125ZM44.5391 18H41.1406V5.32031H44.5391V18ZM40.9414 2.03906C40.9414 1.53125 41.1094 1.11328 41.4453 0.785156C41.7891 0.457031 42.2539 0.292969 42.8398 0.292969C43.418 0.292969 43.8789 0.457031 44.2227 0.785156C44.5664 1.11328 44.7383 1.53125 44.7383 2.03906C44.7383 2.55469 44.5625 2.97656 44.2109 3.30469C43.8672 3.63281 43.4102 3.79688 42.8398 3.79688C42.2695 3.79688 41.8086 3.63281 41.457 3.30469C41.1133 2.97656 40.9414 2.55469 40.9414 2.03906ZM50.457 5.32031L50.5625 6.78516C51.4688 5.65234 52.6836 5.08594 54.207 5.08594C55.5508 5.08594 56.5508 5.48047 57.207 6.26953C57.8633 7.05859 58.1992 8.23828 58.2148 9.80859V18H54.8281V9.89062C54.8281 9.17188 54.6719 8.65234 54.3594 8.33203C54.0469 8.00391 53.5273 7.83984 52.8008 7.83984C51.8477 7.83984 51.1328 8.24609 50.6562 9.05859V18H47.2695V5.32031H50.457ZM66.6289 18.2344C64.7695 18.2344 63.2539 17.6641 62.082 16.5234C60.918 15.3828 60.3359 13.8633 60.3359 11.9648V11.6367C60.3359 10.3633 60.582 9.22656 61.0742 8.22656C61.5664 7.21875 62.2617 6.44531 63.1602 5.90625C64.0664 5.35938 65.0977 5.08594 66.2539 5.08594C67.9883 5.08594 69.3516 5.63281 70.3438 6.72656C71.3438 7.82031 71.8438 9.37109 71.8438 11.3789V12.7617H63.7695C63.8789 13.5898 64.207 14.2539 64.7539 14.7539C65.3086 15.2539 66.0078 15.5039 66.8516 15.5039C68.1562 15.5039 69.1758 15.0312 69.9102 14.0859L71.5742 15.9492C71.0664 16.668 70.3789 17.2305 69.5117 17.6367C68.6445 18.0352 67.6836 18.2344 66.6289 18.2344ZM66.2422 7.82812C65.5703 7.82812 65.0234 8.05469 64.6016 8.50781C64.1875 8.96094 63.9219 9.60938 63.8047 10.4531H68.5156V10.1836C68.5 9.43359 68.2969 8.85547 67.9062 8.44922C67.5156 8.03516 66.9609 7.82812 66.2422 7.82812ZM79.6133 18.2344C77.7539 18.2344 76.2383 17.6641 75.0664 16.5234C73.9023 15.3828 73.3203 13.8633 73.3203 11.9648V11.6367C73.3203 10.3633 73.5664 9.22656 74.0586 8.22656C74.5508 7.21875 75.2461 6.44531 76.1445 5.90625C77.0508 5.35938 78.082 5.08594 79.2383 5.08594C80.9727 5.08594 82.3359 5.63281 83.3281 6.72656C84.3281 7.82031 84.8281 9.37109 84.8281 11.3789V12.7617H76.7539C76.8633 13.5898 77.1914 14.2539 77.7383 14.7539C78.293 15.2539 78.9922 15.5039 79.8359 15.5039C81.1406 15.5039 82.1602 15.0312 82.8945 14.0859L84.5586 15.9492C84.0508 16.668 83.3633 17.2305 82.4961 17.6367C81.6289 18.0352 80.668 18.2344 79.6133 18.2344ZM79.2266 7.82812C78.5547 7.82812 78.0078 8.05469 77.5859 8.50781C77.1719 8.96094 76.9062 9.60938 76.7891 10.4531H81.5V10.1836C81.4844 9.43359 81.2812 8.85547 80.8906 8.44922C80.5 8.03516 79.9453 7.82812 79.2266 7.82812ZM93.8867 8.49609C93.4258 8.43359 93.0195 8.40234 92.668 8.40234C91.3867 8.40234 90.5469 8.83594 90.1484 9.70312V18H86.7617V5.32031H89.9609L90.0547 6.83203C90.7344 5.66797 91.6758 5.08594 92.8789 5.08594C93.2539 5.08594 93.6055 5.13672 93.9336 5.23828L93.8867 8.49609ZM95.75 18V0.9375H101.727C103.797 0.9375 105.367 1.33594 106.438 2.13281C107.508 2.92187 108.043 4.08203 108.043 5.61328C108.043 6.44922 107.828 7.1875 107.398 7.82812C106.969 8.46094 106.371 8.92578 105.605 9.22266C106.48 9.44141 107.168 9.88281 107.668 10.5469C108.176 11.2109 108.43 12.0234 108.43 12.9844C108.43 14.625 107.906 15.8672 106.859 16.7109C105.812 17.5547 104.32 17.9844 102.383 18H95.75ZM99.2656 10.5703V15.1758H102.277C103.105 15.1758 103.75 14.9805 104.211 14.5898C104.68 14.1914 104.914 13.6445 104.914 12.9492C104.914 11.3867 104.105 10.5938 102.488 10.5703H99.2656ZM99.2656 8.08594H101.867C103.641 8.05469 104.527 7.34766 104.527 5.96484C104.527 5.19141 104.301 4.63672 103.848 4.30078C103.402 3.95703 102.695 3.78516 101.727 3.78516H99.2656V8.08594ZM118.203 18C118.047 17.6953 117.934 17.3164 117.863 16.8633C117.043 17.7773 115.977 18.2344 114.664 18.2344C113.422 18.2344 112.391 17.875 111.57 17.1562C110.758 16.4375 110.352 15.5312 110.352 14.4375C110.352 13.0938 110.848 12.0625 111.84 11.3438C112.84 10.625 114.281 10.2617 116.164 10.2539H117.723V9.52734C117.723 8.94141 117.57 8.47266 117.266 8.12109C116.969 7.76953 116.496 7.59375 115.848 7.59375C115.277 7.59375 114.828 7.73047 114.5 8.00391C114.18 8.27734 114.02 8.65234 114.02 9.12891H110.633C110.633 8.39453 110.859 7.71484 111.312 7.08984C111.766 6.46484 112.406 5.97656 113.234 5.625C114.062 5.26562 114.992 5.08594 116.023 5.08594C117.586 5.08594 118.824 5.48047 119.738 6.26953C120.66 7.05078 121.121 8.15234 121.121 9.57422V15.0703C121.129 16.2734 121.297 17.1836 121.625 17.8008V18H118.203ZM115.402 15.6445C115.902 15.6445 116.363 15.5352 116.785 15.3164C117.207 15.0898 117.52 14.7891 117.723 14.4141V12.2344H116.457C114.762 12.2344 113.859 12.8203 113.75 13.9922L113.738 14.1914C113.738 14.6133 113.887 14.9609 114.184 15.2344C114.48 15.5078 114.887 15.6445 115.402 15.6445ZM130.59 14.4961C130.59 14.082 130.383 13.7578 129.969 13.5234C129.562 13.2812 128.906 13.0664 128 12.8789C124.984 12.2461 123.477 10.9648 123.477 9.03516C123.477 7.91016 123.941 6.97266 124.871 6.22266C125.809 5.46484 127.031 5.08594 128.539 5.08594C130.148 5.08594 131.434 5.46484 132.395 6.22266C133.363 6.98047 133.848 7.96484 133.848 9.17578H130.461C130.461 8.69141 130.305 8.29297 129.992 7.98047C129.68 7.66016 129.191 7.5 128.527 7.5C127.957 7.5 127.516 7.62891 127.203 7.88672C126.891 8.14453 126.734 8.47266 126.734 8.87109C126.734 9.24609 126.91 9.55078 127.262 9.78516C127.621 10.0117 128.223 10.2109 129.066 10.3828C129.91 10.5469 130.621 10.7344 131.199 10.9453C132.988 11.6016 133.883 12.7383 133.883 14.3555C133.883 15.5117 133.387 16.4492 132.395 17.168C131.402 17.8789 130.121 18.2344 128.551 18.2344C127.488 18.2344 126.543 18.0469 125.715 17.6719C124.895 17.2891 124.25 16.7695 123.781 16.1133C123.312 15.4492 123.078 14.7344 123.078 13.9688H126.289C126.32 14.5703 126.543 15.0312 126.957 15.3516C127.371 15.6719 127.926 15.832 128.621 15.832C129.27 15.832 129.758 15.7109 130.086 15.4688C130.422 15.2188 130.59 14.8945 130.59 14.4961ZM141.91 18.2344C140.051 18.2344 138.535 17.6641 137.363 16.5234C136.199 15.3828 135.617 13.8633 135.617 11.9648V11.6367C135.617 10.3633 135.863 9.22656 136.355 8.22656C136.848 7.21875 137.543 6.44531 138.441 5.90625C139.348 5.35938 140.379 5.08594 141.535 5.08594C143.27 5.08594 144.633 5.63281 145.625 6.72656C146.625 7.82031 147.125 9.37109 147.125 11.3789V12.7617H139.051C139.16 13.5898 139.488 14.2539 140.035 14.7539C140.59 15.2539 141.289 15.5039 142.133 15.5039C143.438 15.5039 144.457 15.0312 145.191 14.0859L146.855 15.9492C146.348 16.668 145.66 17.2305 144.793 17.6367C143.926 18.0352 142.965 18.2344 141.91 18.2344ZM141.523 7.82812C140.852 7.82812 140.305 8.05469 139.883 8.50781C139.469 8.96094 139.203 9.60938 139.086 10.4531H143.797V10.1836C143.781 9.43359 143.578 8.85547 143.188 8.44922C142.797 8.03516 142.242 7.82812 141.523 7.82812ZM158.152 5.32031L158.258 6.78516C159.164 5.65234 160.379 5.08594 161.902 5.08594C163.246 5.08594 164.246 5.48047 164.902 6.26953C165.559 7.05859 165.895 8.23828 165.91 9.80859V18H162.523V9.89062C162.523 9.17188 162.367 8.65234 162.055 8.33203C161.742 8.00391 161.223 7.83984 160.496 7.83984C159.543 7.83984 158.828 8.24609 158.352 9.05859V18H154.965V5.32031H158.152ZM167.961 11.543C167.961 10.2852 168.203 9.16406 168.688 8.17969C169.172 7.19531 169.867 6.43359 170.773 5.89453C171.688 5.35547 172.746 5.08594 173.949 5.08594C175.66 5.08594 177.055 5.60938 178.133 6.65625C179.219 7.70312 179.824 9.125 179.949 10.9219L179.973 11.7891C179.973 13.7344 179.43 15.2969 178.344 16.4766C177.258 17.6484 175.801 18.2344 173.973 18.2344C172.145 18.2344 170.684 17.6484 169.59 16.4766C168.504 15.3047 167.961 13.7109 167.961 11.6953V11.543ZM171.348 11.7891C171.348 12.9922 171.574 13.9141 172.027 14.5547C172.48 15.1875 173.129 15.5039 173.973 15.5039C174.793 15.5039 175.434 15.1914 175.895 14.5664C176.355 13.9336 176.586 12.9258 176.586 11.543C176.586 10.3633 176.355 9.44922 175.895 8.80078C175.434 8.15234 174.785 7.82812 173.949 7.82812C173.121 7.82812 172.48 8.15234 172.027 8.80078C171.574 9.44141 171.348 10.4375 171.348 11.7891ZM186.113 2.20312V5.32031H188.281V7.80469H186.113V14.1328C186.113 14.6016 186.203 14.9375 186.383 15.1406C186.562 15.3438 186.906 15.4453 187.414 15.4453C187.789 15.4453 188.121 15.418 188.41 15.3633V17.9297C187.746 18.1328 187.062 18.2344 186.359 18.2344C183.984 18.2344 182.773 17.0352 182.727 14.6367V7.80469H180.875V5.32031H182.727V2.20312H186.113ZM196.004 18.2344C194.145 18.2344 192.629 17.6641 191.457 16.5234C190.293 15.3828 189.711 13.8633 189.711 11.9648V11.6367C189.711 10.3633 189.957 9.22656 190.449 8.22656C190.941 7.21875 191.637 6.44531 192.535 5.90625C193.441 5.35938 194.473 5.08594 195.629 5.08594C197.363 5.08594 198.727 5.63281 199.719 6.72656C200.719 7.82031 201.219 9.37109 201.219 11.3789V12.7617H193.145C193.254 13.5898 193.582 14.2539 194.129 14.7539C194.684 15.2539 195.383 15.5039 196.227 15.5039C197.531 15.5039 198.551 15.0312 199.285 14.0859L200.949 15.9492C200.441 16.668 199.754 17.2305 198.887 17.6367C198.02 18.0352 197.059 18.2344 196.004 18.2344ZM195.617 7.82812C194.945 7.82812 194.398 8.05469 193.977 8.50781C193.562 8.96094 193.297 9.60938 193.18 10.4531H197.891V10.1836C197.875 9.43359 197.672 8.85547 197.281 8.44922C196.891 8.03516 196.336 7.82812 195.617 7.82812Z" fill="black"/>
</svg>
